name C:\Users\u0101727\Documents\MyRepositories\upper-imu-dc\Results\main_mocap_tracking\Case_13\FLX01_orientations_groundFrame.mot
datacolumns 13
datarows 40
range 1.51000000 1.90000000
endheader 
time	radius_imu_[0][0]	radius_imu_[0][1]	radius_imu_[0][2]	radius_imu_[1][0]	radius_imu_[1][1]	radius_imu_[1][2]	radius_imu_[2][0]	radius_imu_[2][1]	radius_imu_[2][2]	radius_imu_x	radius_imu_y	radius_imu_z	
          1.51000000	          0.27704159	         -0.94011550	          0.19857193	         -0.29407924	          0.11378327	          0.94898407	         -0.91474879	         -0.32130394	         -0.24494576	         -1.82339668	          0.19990062	          1.28421921	
          1.52000000	          0.27733608	         -0.94143681	          0.19178486	         -0.30786583	          0.10200972	          0.94594537	         -0.91011172	         -0.32138878	         -0.26154525	         -1.84054804	          0.19298045	          1.28431195	
          1.53000000	          0.27740713	         -0.94288815	          0.18441047	         -0.31980689	          0.09037381	          0.94316283	         -0.90596293	         -0.32061584	         -0.27647179	         -1.85594092	          0.18547201	          1.28465988	
          1.54000000	          0.27788329	         -0.94423832	          0.17662068	         -0.32997157	          0.07884883	          0.94069210	         -0.90216387	         -0.31968242	         -0.28966103	         -1.86950627	          0.17755209	          1.28458295	
          1.55000000	          0.27893206	         -0.94541707	          0.16847396	         -0.33830616	          0.06744947	          0.93861574	         -0.89874682	         -0.31880580	         -0.30102660	         -1.88114623	          0.16928130	          1.28389987	
          1.56000000	          0.28055975	         -0.94640376	          0.16001922	         -0.34486911	          0.05618788	          0.93696756	         -0.89574077	         -0.31806107	         -0.31062137	         -1.89091196	          0.16071012	          1.28260118	
          1.57000000	          0.28271816	         -0.94719778	          0.15128390	         -0.34976856	          0.04505741	          0.93575199	         -0.89315866	         -0.31746843	         -0.31856146	         -1.89892349	          0.15186699	          1.28073600	
          1.58000000	          0.28522061	         -0.94784412	          0.14226989	         -0.35323369	          0.03403602	          0.93491578	         -0.89099672	         -0.31691177	         -0.32510271	         -1.90545168	          0.14275426	          1.27850020	
          1.59000000	          0.28864361	         -0.94811441	          0.13328143	         -0.35558854	          0.02309227	          0.93435728	         -0.88895537	         -0.31708961	         -0.33047319	         -1.91075500	          0.13367922	          1.27527146	
          1.60000000	          0.29101452	         -0.94868779	          0.12370135	         -0.35722082	          0.01219920	          0.93394029	         -0.88752681	         -0.31597888	         -0.33534088	         -1.91551977	          0.12401903	          1.27315406	
          1.61000000	          0.29365782	         -0.94907223	          0.11413585	         -0.35850258	          0.00134015	          0.93352778	         -0.88613824	         -0.31505573	         -0.33985129	         -1.91993309	          0.11438512	          1.27072385	
          1.62000000	          0.29526590	         -0.94971926	          0.10416994	         -0.35974484	         -0.00950764	          0.93300228	         -0.88509982	         -0.31295836	         -0.34446389	         -1.92447187	          0.10435927	          1.26937151	
          1.63000000	          0.30048330	         -0.94897589	          0.09567943	         -0.36113398	         -0.02035203	          0.93229182	         -0.88277519	         -0.31469122	         -0.34882289	         -1.92882714	          0.09582602	          1.26414465	
          1.64000000	          0.30519026	         -0.94830177	          0.08707848	         -0.36265181	         -0.03118486	          0.93140280	         -0.88053539	         -0.31583423	         -0.35342067	         -1.93346254	          0.08718891	          1.25943587	
          1.65000000	          0.30751046	         -0.94837771	          0.07756962	         -0.36417345	         -0.04198495	          0.93038431	         -0.87909898	         -0.31435170	         -0.35828479	         -1.93838645	          0.07764762	          1.25724389	
          1.66000000	          0.31035555	         -0.94816728	          0.06825138	         -0.36546822	         -0.05273025	          0.92932906	         -0.87756049	         -0.31336614	         -0.36289013	         -1.94307431	          0.06830448	          1.25446613	
          1.67000000	          0.31345870	         -0.94776889	          0.05897258	         -0.36634185	         -0.06339915	          0.92831794	         -0.87609206	         -0.31259346	         -0.36708042	         -1.94735281	          0.05900681	          1.25138765	
          1.68000000	          0.31664800	         -0.94724210	          0.04966342	         -0.36680451	         -0.07399642	          0.92735052	         -0.87475053	         -0.31186045	         -0.37088350	         -1.95124998	          0.04968385	          1.24819030	
          1.69000000	          0.31983944	         -0.94661251	          0.04034213	         -0.36707872	         -0.08454964	          0.92633934	         -0.87347349	         -0.31108860	         -0.37452362	         -1.95500839	          0.04035308	          1.24496126	
          1.70000000	          0.32300422	         -0.94588716	          0.03107659	         -0.36750722	         -0.09510227	          0.92514539	         -0.87212769	         -0.31024674	         -0.37833880	         -1.95899488	          0.03108160	          1.24172924	
          1.71000000	          0.32615010	         -0.94506343	          0.02193679	         -0.36840603	         -0.10570089	          0.92363646	         -0.87057631	         -0.30932577	         -0.38264142	         -1.96354963	          0.02193855	          1.23848518	
          1.72000000	          0.32930864	         -0.94413329	          0.01296716	         -0.36997287	         -0.11638518	          0.92172369	         -0.86872084	         -0.30832908	         -0.38763035	         -1.96889125	          0.01296752	          1.23519572	
          1.73000000	          0.33252390	         -0.94308554	          0.00418511	         -0.37228250	         -0.12718379	          0.91936392	         -0.86650655	         -0.30726852	         -0.39338589	         -1.97511160	          0.00418512	          1.23181473	
          1.74000000	          0.33584584	         -0.94190671	         -0.00439638	         -0.37536168	         -0.13811673	          0.91653007	         -0.86389304	         -0.30616258	         -0.39994161	         -1.98225369	         -0.00439640	          1.22828980	
          1.75000000	          0.33933033	         -0.94058105	         -0.01273676	         -0.37929109	         -0.14920116	          0.91316881	         -0.86080962	         -0.30503493	         -0.40738249	         -1.99041862	         -0.01273711	          1.22456217	
          1.76000000	          0.34304219	         -0.93909075	         -0.02075110	         -0.38425456	         -0.16045515	          0.90917687	         -0.85712921	         -0.30391232	         -0.41589279	         -1.99981912	         -0.02075259	          1.22056396	
          1.77000000	          0.34705469	         -0.93741707	         -0.02832440	         -0.39048931	         -0.17189597	          0.90441687	         -0.85268467	         -0.30282174	         -0.42570865	         -2.01073007	         -0.02832819	          1.21621903	
          1.78000000	          0.35144154	         -0.93554218	         -0.03535066	         -0.39816517	         -0.18353393	          0.89876571	         -0.84732127	         -0.30178820	         -0.43700176	         -2.02336280	         -0.03535802	          1.21145112	
          1.79000000	          0.35626393	         -0.93345111	         -0.04177365	         -0.40727012	         -0.19536615	          0.89216765	         -0.84095604	         -0.30083399	         -0.44976866	         -2.03774264	         -0.04178581	          1.20619679	
          1.80000000	          0.36155911	         -0.93113285	         -0.04760912	         -0.41756599	         -0.20737425	          0.88466636	         -0.83361481	         -0.29997923	         -0.46378746	         -2.05365619	         -0.04762713	          1.20041646	
          1.81000000	          0.36733595	         -0.92858037	         -0.05294138	         -0.42862778	         -0.21952703	          0.87640522	         -0.82543475	         -0.29924300	         -0.47865552	         -2.07068486	         -0.05296614	          1.19409853	
          1.82000000	          0.37357791	         -0.92578995	         -0.05790096	         -0.43993594	         -0.23178615	          0.86760103	         -0.81663695	         -0.29864387	         -0.49387846	         -2.08829561	         -0.05793336	          1.18725623	
          1.83000000	          0.38024963	         -0.92276036	         -0.06263820	         -0.45096920	         -0.24411136	          0.85850825	         -0.80748808	         -0.29819954	         -0.50895976	         -2.10593598	         -0.06267924	          1.17992108	
          1.84000000	          0.38730267	         -0.91949260	         -0.06730524	         -0.46126168	         -0.25646352	          0.84939045	         -0.79826957	         -0.29792586	         -0.52345570	         -2.12309483	         -0.06735616	          1.17213728	
          1.85000000	          0.39467963	         -0.91598986	         -0.07204551	         -0.47043000	         -0.26880575	          0.84049930	         -0.78925509	         -0.29783559	         -0.53700127	         -2.13933406	         -0.07210799	          1.16395774	
          1.86000000	          0.40231892	         -0.91225729	         -0.07698132	         -0.47819759	         -0.28110516	          0.83204985	         -0.78068339	         -0.29793712	         -0.54933316	         -2.15432023	         -0.07705755	          1.15543961	
          1.87000000	          0.41016117	         -0.90830149	         -0.08219628	         -0.48442298	         -0.29333523	          0.82418979	         -0.77272388	         -0.29823288	         -0.56031684	         -2.16786328	         -0.08228911	          1.14663805	
          1.88000000	          0.41815550	         -0.90412995	         -0.08772120	         -0.48911287	         -0.30547763	          0.81697737	         -0.76545057	         -0.29871801	         -0.56995874	         -2.17993883	         -0.08783409	          1.13760035	
          1.89000000	          0.42626229	         -0.89975090	         -0.09353493	         -0.49239850	         -0.31752146	          0.81038500	         -0.75884398	         -0.29938010	         -0.57838341	         -2.19066739	         -0.09367186	          1.12836356	
          1.90000000	          0.43445066	         -0.89517362	         -0.09958315	         -0.49447769	         -0.32946005	          0.80433071	         -0.75282431	         -0.30020036	         -0.58577752	         -2.20025075	         -0.09974848	          1.11895702	
